<svg width="14" height="14" viewBox="0 0 14 14" fill="none" xmlns="http://www.w3.org/2000/svg">
<path d="M1.70723 0.292893C1.31671 -0.097631 0.683542 -0.097631 0.293018 0.292893C-0.0975066 0.683417 -0.0975066 1.31658 0.293018 1.70711L5.58585 6.99994L0.292893 12.2929C-0.097631 12.6834 -0.097631 13.3166 0.292893 13.7071C0.683417 14.0976 1.31658 14.0976 1.70711 13.7071L7.00006 8.41415L12.293 13.7071C12.6835 14.0976 13.3167 14.0976 13.7072 13.7071C14.0977 13.3166 14.0977 12.6834 13.7072 12.2929L8.41428 6.99994L13.7071 1.70712C14.0976 1.3166 14.0976 0.683433 13.7071 0.292908C13.3166 -0.0976163 12.6834 -0.0976163 12.2929 0.292908L7.00006 5.58572L1.70723 0.292893Z" fill="white"/>
</svg>
